<svg width="44" height="31" viewBox="0 0 44 31" fill="none" xmlns="http://www.w3.org/2000/svg">
<path d="M34.5702 12.9691C36.8617 12.9691 39.0593 13.8793 40.6796 15.4997C42.2999 17.12 43.2102 19.3176 43.2102 21.6091C43.2102 23.9005 42.2999 26.0981 40.6796 27.7185C39.0593 29.3388 36.8617 30.2491 34.5702 30.2491H23.7702V20.3433L24.4031 20.9762C24.8104 21.3696 25.3561 21.5873 25.9224 21.5824C26.4888 21.5775 27.0305 21.3503 27.431 20.9499C27.8315 20.5494 28.0586 20.0076 28.0636 19.4413C28.0685 18.8749 27.8508 18.3293 27.4573 17.9219L23.1373 13.6019C22.7339 13.1984 22.1872 12.9709 21.6167 12.9691H21.6037C21.0331 12.9709 20.4865 13.1984 20.0831 13.6019L15.7631 17.9219C15.5568 18.1212 15.3922 18.3595 15.279 18.6231C15.1658 18.8866 15.1062 19.17 15.1037 19.4568C15.1012 19.7436 15.1559 20.0281 15.2645 20.2935C15.3731 20.559 15.5335 20.8001 15.7363 21.0029C15.9391 21.2058 16.1803 21.3661 16.4457 21.4747C16.7112 21.5834 16.9956 21.638 17.2824 21.6355C17.5692 21.633 17.8526 21.5734 18.1162 21.4602C18.3797 21.347 18.6181 21.1825 18.8173 20.9762L19.4502 20.3433V30.2491H10.8102C8.07038 30.2516 5.432 29.2128 3.42942 27.343C1.42684 25.4732 0.209759 22.9121 0.0246854 20.1786C-0.160389 17.445 0.700379 14.7433 2.43265 12.6207C4.16492 10.498 6.6392 9.113 9.35435 8.74625C10.3518 5.84527 12.3459 3.39215 14.982 1.82323C17.6181 0.254321 20.7252 -0.328649 23.7507 0.178023C26.7763 0.684696 29.524 2.24816 31.5051 4.5903C33.4862 6.93244 34.5723 9.9014 34.5702 12.9691Z" fill="white"/>
</svg>
